<svg width="258" height="48" viewBox="0 0 258 48" fill="none" xmlns="http://www.w3.org/2000/svg">
<g filter="url(#filter0_d_1_957)">
<rect x="4" width="250" height="40" rx="10" fill="#294BFA" shape-rendering="crispEdges"/>
<path d="M32 20L26 15V18H19V22H26V25L32 20ZM35 27H27V29H35C36.1 29 37 28.1 37 27V13C37 11.9 36.1 11 35 11H27V13H35V27Z" fill="white"/>
<path d="M108.543 30V12.1533H111.473V27.5098H119.054V30H108.543ZM133.812 23.2129C133.812 24.3359 133.666 25.3328 133.373 26.2036C133.08 27.0744 132.652 27.8109 132.091 28.4131C131.529 29.0072 130.854 29.4629 130.064 29.7803C129.275 30.0895 128.384 30.2441 127.391 30.2441C126.463 30.2441 125.613 30.0895 124.84 29.7803C124.067 29.4629 123.395 29.0072 122.826 28.4131C122.264 27.8109 121.829 27.0744 121.52 26.2036C121.21 25.3328 121.056 24.3359 121.056 23.2129C121.056 21.7236 121.312 20.4622 121.825 19.4287C122.346 18.387 123.086 17.5936 124.046 17.0483C125.007 16.5031 126.15 16.2305 127.477 16.2305C128.722 16.2305 129.82 16.5031 130.772 17.0483C131.725 17.5936 132.469 18.387 133.006 19.4287C133.543 20.4704 133.812 21.7318 133.812 23.2129ZM124.01 23.2129C124.01 24.1976 124.128 25.0399 124.364 25.7397C124.608 26.4396 124.982 26.9767 125.487 27.3511C125.991 27.7173 126.642 27.9004 127.44 27.9004C128.237 27.9004 128.889 27.7173 129.393 27.3511C129.898 26.9767 130.268 26.4396 130.504 25.7397C130.74 25.0399 130.858 24.1976 130.858 23.2129C130.858 22.2282 130.74 21.394 130.504 20.7104C130.268 20.0187 129.898 19.4938 129.393 19.1357C128.889 18.7695 128.233 18.5864 127.428 18.5864C126.24 18.5864 125.373 18.9852 124.828 19.7827C124.282 20.5802 124.01 21.7236 124.01 23.2129ZM140.965 36.0059C139.134 36.0059 137.73 35.6763 136.754 35.0171C135.777 34.3579 135.289 33.4342 135.289 32.2461C135.289 31.416 135.549 30.7121 136.07 30.1343C136.591 29.5646 137.336 29.1699 138.304 28.9502C137.938 28.7874 137.621 28.5352 137.352 28.1934C137.092 27.8434 136.961 27.4569 136.961 27.0337C136.961 26.5291 137.104 26.0978 137.389 25.7397C137.674 25.3817 138.101 25.0358 138.67 24.7021C137.962 24.401 137.393 23.9128 136.961 23.2373C136.538 22.5537 136.327 21.7521 136.327 20.8325C136.327 19.856 136.534 19.0259 136.949 18.3423C137.364 17.6506 137.971 17.1257 138.768 16.7676C139.566 16.4014 140.53 16.2183 141.661 16.2183C141.905 16.2183 142.17 16.2345 142.455 16.2671C142.748 16.2915 143.016 16.3241 143.26 16.3647C143.513 16.3973 143.704 16.4339 143.834 16.4746H148.509V18.0737L146.214 18.501C146.434 18.8102 146.609 19.1642 146.739 19.563C146.869 19.9536 146.935 20.3809 146.935 20.8447C146.935 22.2445 146.45 23.3472 145.482 24.1528C144.522 24.9504 143.195 25.3491 141.502 25.3491C141.096 25.3328 140.701 25.3003 140.318 25.2515C140.025 25.4305 139.802 25.6299 139.647 25.8496C139.492 26.0612 139.415 26.3013 139.415 26.5698C139.415 26.7896 139.492 26.9686 139.647 27.1069C139.802 27.2371 140.029 27.3348 140.331 27.3999C140.64 27.465 141.014 27.4976 141.454 27.4976H143.785C145.266 27.4976 146.397 27.8109 147.179 28.4375C147.96 29.0641 148.351 29.9837 148.351 31.1963C148.351 32.7344 147.716 33.9185 146.446 34.7485C145.177 35.5868 143.35 36.0059 140.965 36.0059ZM141.075 33.9917C142.076 33.9917 142.918 33.894 143.602 33.6987C144.286 33.5034 144.802 33.2227 145.152 32.8564C145.502 32.4984 145.677 32.0711 145.677 31.5747C145.677 31.1353 145.567 30.7975 145.348 30.5615C145.128 30.3255 144.798 30.1628 144.359 30.0732C143.919 29.9837 143.374 29.939 142.723 29.939H140.599C140.07 29.939 139.602 30.0203 139.195 30.1831C138.788 30.354 138.471 30.5981 138.243 30.9155C138.023 31.2329 137.914 31.6154 137.914 32.063C137.914 32.6815 138.186 33.1576 138.731 33.4912C139.285 33.8249 140.066 33.9917 141.075 33.9917ZM141.637 23.4692C142.475 23.4692 143.097 23.2414 143.504 22.7856C143.911 22.3218 144.115 21.6707 144.115 20.8325C144.115 19.9211 143.903 19.2375 143.48 18.7817C143.065 18.326 142.446 18.0981 141.625 18.0981C140.819 18.0981 140.204 18.3301 139.781 18.7939C139.366 19.2578 139.159 19.9455 139.159 20.8569C139.159 21.6789 139.366 22.3218 139.781 22.7856C140.204 23.2414 140.823 23.4692 141.637 23.4692ZM153.844 16.4868V30H150.975V16.4868H153.844ZM152.428 11.311C152.867 11.311 153.246 11.429 153.563 11.665C153.889 11.901 154.051 12.3079 154.051 12.8857C154.051 13.4554 153.889 13.8623 153.563 14.1064C153.246 14.3424 152.867 14.4604 152.428 14.4604C151.972 14.4604 151.585 14.3424 151.268 14.1064C150.959 13.8623 150.804 13.4554 150.804 12.8857C150.804 12.3079 150.959 11.901 151.268 11.665C151.585 11.429 151.972 11.311 152.428 11.311ZM165.001 16.2305C166.523 16.2305 167.707 16.6252 168.553 17.4146C169.408 18.1958 169.835 19.4531 169.835 21.1865V30H166.966V21.7236C166.966 20.6738 166.751 19.8885 166.319 19.3677C165.888 18.8387 165.221 18.5742 164.317 18.5742C163.007 18.5742 162.096 18.9771 161.583 19.7827C161.078 20.5884 160.826 21.7562 160.826 23.2861V30H157.958V16.4868H160.191L160.594 18.3179H160.753C161.046 17.8459 161.408 17.4593 161.839 17.1582C162.279 16.849 162.767 16.617 163.304 16.4624C163.849 16.3078 164.415 16.2305 165.001 16.2305Z" fill="white"/>
</g>
<defs>
<filter id="filter0_d_1_957" x="0" y="0" width="258" height="48" filterUnits="userSpaceOnUse" color-interpolation-filters="sRGB">
<feFlood flood-opacity="0" result="BackgroundImageFix"/>
<feColorMatrix in="SourceAlpha" type="matrix" values="0 0 0 0 0 0 0 0 0 0 0 0 0 0 0 0 0 0 127 0" result="hardAlpha"/>
<feOffset dy="4"/>
<feGaussianBlur stdDeviation="2"/>
<feComposite in2="hardAlpha" operator="out"/>
<feColorMatrix type="matrix" values="0 0 0 0 0 0 0 0 0 0 0 0 0 0 0 0 0 0 0.15 0"/>
<feBlend mode="normal" in2="BackgroundImageFix" result="effect1_dropShadow_1_957"/>
<feBlend mode="normal" in="SourceGraphic" in2="effect1_dropShadow_1_957" result="shape"/>
</filter>
</defs>
</svg>
