<svg width="249" height="40" viewBox="0 0 249 40" fill="none" xmlns="http://www.w3.org/2000/svg">
<rect x="0.5" y="0.5" width="248" height="39" rx="9.5" stroke="#F31D1D"/>
<path d="M35 15.5338C34.9963 15.1073 34.8769 14.6909 34.656 14.3342C34.4351 13.9775 34.122 13.6955 33.754 13.5217C33.386 13.3479 32.9785 13.2897 32.5801 13.354C32.1817 13.4183 31.8091 13.6023 31.5068 13.8843C31.2044 14.1662 30.9849 14.5341 30.8745 14.9443C30.7641 15.3545 30.7673 15.7895 30.8839 16.1978C31.0004 16.6061 31.2254 16.9703 31.5319 17.2471C31.8385 17.524 32.2137 17.7017 32.613 17.7593C32.834 18.4047 32.9269 19.0914 32.886 19.7765C32.845 20.4615 32.6711 21.1303 32.3751 21.7411C32.0792 22.3519 31.6674 22.8916 31.1656 23.3266C30.6638 23.7615 30.0827 24.0824 29.4585 24.2691C29.1811 23.5937 28.7005 23.0342 28.0915 22.6779C28.963 21.5336 29.5109 20.1517 29.6718 18.6919C29.8327 17.2321 29.6 15.7539 29.0007 14.4281C28.4014 13.1022 27.4599 11.9829 26.2849 11.1993C25.1099 10.4158 23.7495 10 22.3607 10C20.9719 10 19.6114 10.4158 18.4364 11.1993C17.2615 11.9829 16.32 13.1022 15.7206 14.4281C15.1213 15.7539 14.8887 17.2321 15.0496 18.6919C15.2105 20.1517 15.7583 21.5336 16.6299 22.6779C16.1472 22.9649 15.7445 23.3813 15.462 23.8853C15.1796 24.3893 15.0275 24.963 15.021 25.5489V26.6616C15.021 27.547 15.3534 28.3962 15.945 29.0222C16.5366 29.6483 17.339 30 18.1756 30H26.5878C27.4244 30 28.2268 29.6483 28.8184 29.0222C29.41 28.3962 29.7424 27.547 29.7424 26.6616V26.4502C30.6862 26.217 31.572 25.773 32.3406 25.148C33.1091 24.5231 33.7426 23.7315 34.1986 22.8265C34.6546 21.9214 34.9226 20.9236 34.9846 19.9001C35.0467 18.8765 34.9013 17.8507 34.5584 16.8914C34.8433 16.5029 34.9986 16.0255 35 15.5338ZM27.6393 26.6616C27.6393 26.9568 27.5285 27.2398 27.3313 27.4485C27.1341 27.6572 26.8667 27.7744 26.5878 27.7744H18.1756C17.8967 27.7744 17.6293 27.6572 17.4321 27.4485C17.2349 27.2398 17.1241 26.9568 17.1241 26.6616V25.5489C17.1241 25.2537 17.2349 24.9707 17.4321 24.762C17.6293 24.5533 17.8967 24.4361 18.1756 24.4361H18.6067C19.7456 25.1645 21.051 25.5496 22.3817 25.5496C23.7124 25.5496 25.0178 25.1645 26.1567 24.4361H26.5878C26.8667 24.4361 27.1341 24.5533 27.3313 24.762C27.5285 24.9707 27.6393 25.2537 27.6393 25.5489V26.6616ZM22.3817 23.3233C21.3418 23.3233 20.3253 22.997 19.4607 22.3856C18.5961 21.7742 17.9222 20.9052 17.5243 19.8886C17.1264 18.8719 17.0222 17.7532 17.2251 16.6739C17.428 15.5946 17.9287 14.6032 18.664 13.825C19.3993 13.0469 20.3361 12.517 21.356 12.3023C22.3759 12.0876 23.433 12.1978 24.3937 12.6189C25.3544 13.0401 26.1755 13.7532 26.7533 14.6682C27.331 15.5832 27.6393 16.6589 27.6393 17.7593C27.6393 18.49 27.5033 19.2135 27.2391 19.8886C26.9749 20.5636 26.5876 21.177 26.0994 21.6936C25.6112 22.2103 25.0316 22.6201 24.3937 22.8997C23.7558 23.1794 23.0721 23.3233 22.3817 23.3233ZM22.3817 16.6466C22.1737 16.6466 21.9704 16.7118 21.7975 16.8341C21.6246 16.9564 21.4898 17.1302 21.4102 17.3335C21.3306 17.5368 21.3098 17.7606 21.3504 17.9764C21.391 18.1923 21.4911 18.3906 21.6382 18.5462C21.7852 18.7018 21.9726 18.8078 22.1766 18.8507C22.3805 18.8937 22.592 18.8716 22.7841 18.7874C22.9762 18.7032 23.1405 18.5606 23.256 18.3776C23.3716 18.1946 23.4332 17.9794 23.4332 17.7593C23.4332 17.4642 23.3224 17.1812 23.1252 16.9725C22.928 16.7638 22.6606 16.6466 22.3817 16.6466Z" fill="#F31D1D"/>
<path d="M115.646 25.1416C115.646 26.1995 115.386 27.111 114.865 27.876C114.353 28.641 113.612 29.2269 112.644 29.6338C111.683 30.0407 110.536 30.2441 109.201 30.2441C108.55 30.2441 107.928 30.2075 107.333 30.1343C106.739 30.061 106.178 29.9552 105.649 29.8169C105.128 29.6704 104.652 29.4954 104.221 29.292V26.5332C104.945 26.8506 105.755 27.1395 106.65 27.3999C107.545 27.6522 108.457 27.7783 109.384 27.7783C110.141 27.7783 110.768 27.6807 111.264 27.4854C111.769 27.2819 112.143 26.9971 112.387 26.6309C112.631 26.2565 112.753 25.8211 112.753 25.3247C112.753 24.7957 112.611 24.3481 112.326 23.9819C112.041 23.6157 111.61 23.2821 111.032 22.981C110.463 22.6717 109.746 22.3421 108.884 21.9922C108.298 21.7562 107.736 21.4876 107.199 21.1865C106.67 20.8854 106.198 20.5314 105.783 20.1245C105.368 19.7176 105.039 19.2375 104.794 18.6841C104.558 18.1226 104.44 17.4634 104.44 16.7065C104.44 15.6974 104.681 14.8348 105.161 14.1187C105.649 13.4025 106.333 12.8532 107.211 12.4707C108.098 12.0882 109.132 11.897 110.312 11.897C111.248 11.897 112.127 11.9946 112.949 12.1899C113.779 12.3853 114.593 12.6619 115.39 13.02L114.462 15.376C113.73 15.0749 113.018 14.8348 112.326 14.6558C111.643 14.4767 110.943 14.3872 110.227 14.3872C109.608 14.3872 109.083 14.4808 108.652 14.668C108.221 14.8551 107.891 15.1196 107.663 15.4614C107.443 15.7951 107.333 16.1938 107.333 16.6577C107.333 17.1785 107.46 17.618 107.712 17.9761C107.972 18.326 108.371 18.6475 108.908 18.9404C109.453 19.2334 110.153 19.5589 111.008 19.917C111.993 20.3239 112.827 20.7511 113.51 21.1987C114.202 21.6463 114.731 22.1834 115.097 22.8101C115.463 23.4285 115.646 24.2057 115.646 25.1416ZM121.665 16.4868V30H118.796V16.4868H121.665ZM120.249 11.311C120.688 11.311 121.066 11.429 121.384 11.665C121.709 11.901 121.872 12.3079 121.872 12.8857C121.872 13.4554 121.709 13.8623 121.384 14.1064C121.066 14.3424 120.688 14.4604 120.249 14.4604C119.793 14.4604 119.406 14.3424 119.089 14.1064C118.78 13.8623 118.625 13.4554 118.625 12.8857C118.625 12.3079 118.78 11.901 119.089 11.665C119.406 11.429 119.793 11.311 120.249 11.311ZM129.636 36.0059C127.805 36.0059 126.401 35.6763 125.424 35.0171C124.448 34.3579 123.959 33.4342 123.959 32.2461C123.959 31.416 124.22 30.7121 124.741 30.1343C125.262 29.5646 126.006 29.1699 126.975 28.9502C126.608 28.7874 126.291 28.5352 126.022 28.1934C125.762 27.8434 125.632 27.4569 125.632 27.0337C125.632 26.5291 125.774 26.0978 126.059 25.7397C126.344 25.3817 126.771 25.0358 127.341 24.7021C126.633 24.401 126.063 23.9128 125.632 23.2373C125.209 22.5537 124.997 21.7521 124.997 20.8325C124.997 19.856 125.205 19.0259 125.62 18.3423C126.035 17.6506 126.641 17.1257 127.438 16.7676C128.236 16.4014 129.2 16.2183 130.332 16.2183C130.576 16.2183 130.84 16.2345 131.125 16.2671C131.418 16.2915 131.687 16.3241 131.931 16.3647C132.183 16.3973 132.374 16.4339 132.504 16.4746H137.18V18.0737L134.885 18.501C135.104 18.8102 135.279 19.1642 135.41 19.563C135.54 19.9536 135.605 20.3809 135.605 20.8447C135.605 22.2445 135.121 23.3472 134.152 24.1528C133.192 24.9504 131.866 25.3491 130.173 25.3491C129.766 25.3328 129.371 25.3003 128.989 25.2515C128.696 25.4305 128.472 25.6299 128.317 25.8496C128.163 26.0612 128.085 26.3013 128.085 26.5698C128.085 26.7896 128.163 26.9686 128.317 27.1069C128.472 27.2371 128.7 27.3348 129.001 27.3999C129.31 27.465 129.685 27.4976 130.124 27.4976H132.456C133.937 27.4976 135.068 27.8109 135.849 28.4375C136.63 29.0641 137.021 29.9837 137.021 31.1963C137.021 32.7344 136.386 33.9185 135.117 34.7485C133.847 35.5868 132.02 36.0059 129.636 36.0059ZM129.746 33.9917C130.747 33.9917 131.589 33.894 132.272 33.6987C132.956 33.5034 133.473 33.2227 133.823 32.8564C134.173 32.4984 134.348 32.0711 134.348 31.5747C134.348 31.1353 134.238 30.7975 134.018 30.5615C133.798 30.3255 133.469 30.1628 133.029 30.0732C132.59 29.9837 132.045 29.939 131.394 29.939H129.27C128.741 29.939 128.273 30.0203 127.866 30.1831C127.459 30.354 127.141 30.5981 126.914 30.9155C126.694 31.2329 126.584 31.6154 126.584 32.063C126.584 32.6815 126.857 33.1576 127.402 33.4912C127.955 33.8249 128.736 33.9917 129.746 33.9917ZM130.307 23.4692C131.145 23.4692 131.768 23.2414 132.175 22.7856C132.582 22.3218 132.785 21.6707 132.785 20.8325C132.785 19.9211 132.574 19.2375 132.15 18.7817C131.735 18.326 131.117 18.0981 130.295 18.0981C129.489 18.0981 128.875 18.3301 128.452 18.7939C128.037 19.2578 127.829 19.9455 127.829 20.8569C127.829 21.6789 128.037 22.3218 128.452 22.7856C128.875 23.2414 129.493 23.4692 130.307 23.4692ZM146.689 16.2305C148.211 16.2305 149.395 16.6252 150.241 17.4146C151.096 18.1958 151.523 19.4531 151.523 21.1865V30H148.654V21.7236C148.654 20.6738 148.439 19.8885 148.007 19.3677C147.576 18.8387 146.909 18.5742 146.005 18.5742C144.695 18.5742 143.784 18.9771 143.271 19.7827C142.766 20.5884 142.514 21.7562 142.514 23.2861V30H139.646V16.4868H141.879L142.282 18.3179H142.441C142.734 17.8459 143.096 17.4593 143.527 17.1582C143.967 16.849 144.455 16.617 144.992 16.4624C145.537 16.3078 146.103 16.2305 146.689 16.2305ZM169.846 12.1533V23.7012C169.846 24.9463 169.581 26.0612 169.052 27.0459C168.531 28.0306 167.742 28.8118 166.684 29.3896C165.626 29.9593 164.296 30.2441 162.692 30.2441C160.406 30.2441 158.664 29.646 157.468 28.4497C156.28 27.2453 155.686 25.6462 155.686 23.6523V12.1533H158.615V23.396C158.615 24.8853 158.965 25.9839 159.665 26.6919C160.365 27.3999 161.411 27.7539 162.802 27.7539C163.763 27.7539 164.544 27.5871 165.146 27.2534C165.756 26.9116 166.204 26.4152 166.489 25.7642C166.782 25.105 166.928 24.3115 166.928 23.3838V12.1533H169.846ZM181.052 16.2305C182.655 16.2305 183.941 16.8164 184.909 17.9883C185.886 19.1602 186.374 20.9017 186.374 23.2129C186.374 24.7428 186.146 26.0327 185.69 27.0825C185.243 28.1242 184.612 28.9136 183.798 29.4507C182.993 29.9797 182.053 30.2441 180.979 30.2441C180.295 30.2441 179.701 30.1546 179.196 29.9756C178.692 29.7965 178.26 29.5646 177.902 29.2798C177.544 28.9868 177.243 28.6694 176.999 28.3276H176.828C176.869 28.6532 176.905 29.0153 176.938 29.4141C176.979 29.8047 176.999 30.1628 176.999 30.4883V35.9937H174.118V16.4868H176.462L176.865 18.3545H176.999C177.251 17.972 177.556 17.618 177.915 17.2925C178.281 16.967 178.72 16.7106 179.233 16.5234C179.754 16.3281 180.36 16.2305 181.052 16.2305ZM180.283 18.5742C179.493 18.5742 178.859 18.7329 178.378 19.0503C177.906 19.3595 177.561 19.8275 177.341 20.4541C177.129 21.0807 177.015 21.866 176.999 22.8101V23.2129C176.999 24.2139 177.101 25.0643 177.304 25.7642C177.516 26.4559 177.862 26.9849 178.342 27.3511C178.83 27.7091 179.489 27.8882 180.319 27.8882C181.019 27.8882 181.597 27.6969 182.053 27.3145C182.517 26.932 182.862 26.3867 183.09 25.6787C183.318 24.9707 183.432 24.1366 183.432 23.1763C183.432 21.7196 183.172 20.5884 182.651 19.7827C182.138 18.9771 181.349 18.5742 180.283 18.5742Z" fill="#F31D1D"/>
</svg>
